<mxfile host="app.diagrams.net" agent="Mozilla/5.0 (X11; Ubuntu; Linux x86_64; rv:132.0) Gecko/20100101 Firefox/132.0" version="24.8.3">
  <diagram name="Page-1" id="OfoULNrLdj_Vo54H9n80">
    <mxGraphModel dx="2004" dy="1125" grid="1" gridSize="10" guides="1" tooltips="1" connect="1" arrows="1" fold="1" page="1" pageScale="1" pageWidth="850" pageHeight="1100" math="0" shadow="0">
      <root>
        <mxCell id="0" />
        <mxCell id="1" parent="0" />
        <mxCell id="CHZfFLarBOPifam4SgHN-5" value="&lt;font style=&quot;font-size: 15px;&quot;&gt;TCPLS API&lt;/font&gt;" style="rounded=0;whiteSpace=wrap;html=1;strokeColor=#007FFF;" vertex="1" parent="1">
          <mxGeometry x="80" y="360" width="120" height="80" as="geometry" />
        </mxCell>
        <mxCell id="CHZfFLarBOPifam4SgHN-6" value="&lt;font style=&quot;font-size: 15px;&quot;&gt;Application&lt;/font&gt;" style="rounded=0;whiteSpace=wrap;html=1;strokeColor=#007FFF;" vertex="1" parent="1">
          <mxGeometry x="80" y="280" width="120" height="80" as="geometry" />
        </mxCell>
        <mxCell id="CHZfFLarBOPifam4SgHN-7" value="&lt;font style=&quot;font-size: 15px;&quot;&gt;Application&lt;/font&gt;" style="rounded=0;whiteSpace=wrap;html=1;strokeColor=#007FFF;" vertex="1" parent="1">
          <mxGeometry x="460" y="280" width="120" height="80" as="geometry" />
        </mxCell>
        <mxCell id="CHZfFLarBOPifam4SgHN-8" value="&lt;font style=&quot;font-size: 15px;&quot;&gt;Network&lt;/font&gt;" style="rounded=0;whiteSpace=wrap;html=1;strokeColor=#007FFF;" vertex="1" parent="1">
          <mxGeometry x="80" y="440" width="120" height="80" as="geometry" />
        </mxCell>
        <mxCell id="CHZfFLarBOPifam4SgHN-9" value="&lt;font style=&quot;font-size: 15px;&quot;&gt;TCPLS API&lt;/font&gt;" style="rounded=0;whiteSpace=wrap;html=1;strokeColor=#007FFF;" vertex="1" parent="1">
          <mxGeometry x="460" y="360" width="120" height="80" as="geometry" />
        </mxCell>
        <mxCell id="CHZfFLarBOPifam4SgHN-10" value="&lt;font style=&quot;font-size: 15px;&quot;&gt;Network&lt;/font&gt;" style="rounded=0;whiteSpace=wrap;html=1;strokeColor=#007FFF;" vertex="1" parent="1">
          <mxGeometry x="460" y="440" width="120" height="80" as="geometry" />
        </mxCell>
        <mxCell id="CHZfFLarBOPifam4SgHN-11" value="" style="endArrow=classic;startArrow=classic;html=1;rounded=0;entryX=0;entryY=0.5;entryDx=0;entryDy=0;" edge="1" parent="1" source="CHZfFLarBOPifam4SgHN-8" target="CHZfFLarBOPifam4SgHN-10">
          <mxGeometry width="50" height="50" relative="1" as="geometry">
            <mxPoint x="270" y="505" as="sourcePoint" />
            <mxPoint x="320" y="455" as="targetPoint" />
          </mxGeometry>
        </mxCell>
        <mxCell id="CHZfFLarBOPifam4SgHN-12" value="&lt;font style=&quot;font-size: 15px;&quot;&gt;IP(TCP(TCPLS records))&lt;/font&gt;" style="text;html=1;align=center;verticalAlign=middle;whiteSpace=wrap;rounded=0;" vertex="1" parent="1">
          <mxGeometry x="230" y="450" width="210" height="30" as="geometry" />
        </mxCell>
      </root>
    </mxGraphModel>
  </diagram>
</mxfile>
